[Header]
FileType HTR
DataType HTRS
FileVersion 1
NumSegments 64
NumFrames 3
DataFrameRate 24
EulerRotationOrder ZYX
CalibrationUnits mm
RotationUnits Degrees
GlobalAxisofGravity Y
BoneLengthAxis Y
ScaleFactor 1.0
[SegmentNames&Hierarchy]
Hips	GLOBAL
Spine	Hips
Spine1	Spine
Spine2	Spine1
Neck	Spine2
Head	Neck
LeftEye	Head
RightEye	Head
LeftShoulder	Spine2
LeftArm	LeftShoulder
LeftForeArm	LeftArm
LeftHand	LeftForeArm
LeftHandThumb1	LeftHand
LeftHandThumb2	LeftHandThumb1
LeftHandThumb3	LeftHandThumb2
LeftHandThumb4	LeftHandThumb3
LeftHandIndex1	LeftHand
LeftHandIndex2	LeftHandIndex1
LeftHandIndex3	LeftHandIndex2
LeftHandIndex4	LeftHandIndex3
LeftHandMiddle1	LeftHand
LeftHandMiddle2	LeftHandMiddle1
LeftHandMiddle3	LeftHandMiddle2
LeftHandMiddle4	LeftHandMiddle3
LeftHandRing1	LeftHand
LeftHandRing2	LeftHandRing1
LeftHandRing3	LeftHandRing2
LeftHandRing4	LeftHandRing3
LeftHandPinky1	LeftHand
LeftHandPinky2	LeftHandPinky1
LeftHandPinky3	LeftHandPinky2
LeftHandPinky4	LeftHandPinky3
RightShoulder	Spine2
RightArm	RightShoulder
RightForeArm	RightArm
RightHand	RightForeArm
RightHandPinky1	RightHand
RightHandPinky2	RightHandPinky1
RightHandPinky3	RightHandPinky2
RightHandPinky4	RightHandPinky3
RightHandRing1	RightHand
RightHandRing2	RightHandRing1
RightHandRing3	RightHandRing2
RightHandRing4	RightHandRing3
RightHandMiddle1	RightHand
RightHandMiddle2	RightHandMiddle1
RightHandMiddle3	RightHandMiddle2
RightHandMiddle4	RightHandMiddle3
RightHandIndex1	RightHand
RightHandIndex2	RightHandIndex1
RightHandIndex3	RightHandIndex2
RightHandIndex4	RightHandIndex3
RightHandThumb1	RightHand
RightHandThumb2	RightHandThumb1
RightHandThumb3	RightHandThumb2
RightHandThumb4	RightHandThumb3
LeftUpLeg	Hips
LeftLeg	LeftUpLeg
LeftFoot	LeftLeg
LeftToeBase	LeftFoot
RightUpLeg	Hips
RightLeg	RightUpLeg
RightFoot	RightLeg
RightToeBase	RightFoot
[BasePosition]
Hips	0	0	0	0	0	0	1
Spine	0	0	0	0	0	0	1
Spine1	0	0	0	0	0	0	1
Spine2	0	0	0	0	0	0	1
Neck	0	0	0	0	0	0	1
Head	0	0	0	0	0	0	1
LeftEye	0	0	0	0	0	0	1
RightEye	0	0	0	0	0	0	1
LeftShoulder	0	0	0	0	0	0	1
LeftArm	0	0	0	0	0	0	1
LeftForeArm	0	0	0	0	0	0	1
LeftHand	0	0	0	0	0	0	1
LeftHandThumb1	0	0	0	0	0	0	1
LeftHandThumb2	0	0	0	0	0	0	1
LeftHandThumb3	0	0	0	0	0	0	1
LeftHandThumb4	0	0	0	0	0	0	1
LeftHandIndex1	0	0	0	0	0	0	1
LeftHandIndex2	0	0	0	0	0	0	1
LeftHandIndex3	0	0	0	0	0	0	1
LeftHandIndex4	0	0	0	0	0	0	1
LeftHandMiddle1	0	0	0	0	0	0	1
LeftHandMiddle2	0	0	0	0	0	0	1
LeftHandMiddle3	0	0	0	0	0	0	1
LeftHandMiddle4	0	0	0	0	0	0	1
LeftHandRing1	0	0	0	0	0	0	1
LeftHandRing2	0	0	0	0	0	0	1
LeftHandRing3	0	0	0	0	0	0	1
LeftHandRing4	0	0	0	0	0	0	1
LeftHandPinky1	0	0	0	0	0	0	1
LeftHandPinky2	0	0	0	0	0	0	1
LeftHandPinky3	0	0	0	0	0	0	1
LeftHandPinky4	0	0	0	0	0	0	1
RightShoulder	0	0	0	0	0	0	1
RightArm	0	0	0	0	0	0	1
RightForeArm	0	0	0	0	0	0	1
RightHand	0	0	0	0	0	0	1
RightHandPinky1	0	0	0	0	0	0	1
RightHandPinky2	0	0	0	0	0	0	1
RightHandPinky3	0	0	0	0	0	0	1
RightHandPinky4	0	0	0	0	0	0	1
RightHandRing1	0	0	0	0	0	0	1
RightHandRing2	0	0	0	0	0	0	1
RightHandRing3	0	0	0	0	0	0	1
RightHandRing4	0	0	0	0	0	0	1
RightHandMiddle1	0	0	0	0	0	0	1
RightHandMiddle2	0	0	0	0	0	0	1
RightHandMiddle3	0	0	0	0	0	0	1
RightHandMiddle4	0	0	0	0	0	0	1
RightHandIndex1	0	0	0	0	0	0	1
RightHandIndex2	0	0	0	0	0	0	1
RightHandIndex3	0	0	0	0	0	0	1
RightHandIndex4	0	0	0	0	0	0	1
RightHandThumb1	0	0	0	0	0	0	1
RightHandThumb2	0	0	0	0	0	0	1
RightHandThumb3	0	0	0	0	0	0	1
RightHandThumb4	0	0	0	0	0	0	1
LeftUpLeg	0	0	0	0	0	0	1
LeftLeg	0	0	0	0	0	0	1
LeftFoot	0	0	0	0	0	0	1
LeftToeBase	0	0	0	0	0	0	1
RightUpLeg	0	0	0	0	0	0	1
RightLeg	0	0	0	0	0	0	1
RightFoot	0	0	0	0	0	0	1
RightToeBase	0	0	0	0	0	0	1
[Hips]
24	42.17523193	1272.258423	-54.33885193	13.63949966	8.128109932	-2.465753794	1.0
25	43.27230453	1290.14917	-66.12789917	16.1052475	7.2870574	-3.465862989	1.0
26	44.83202362	1296.674194	-72.64599609	17.47266388	6.330720425	-3.936326265	1.0
[Spine]
24	0	101.8159943	1.315000057	14.13650799	-2.909648657	-2.722259521	1.0
25	0	101.8159943	1.315000057	14.49082947	-2.016442537	-1.557402492	1.0
26	0	101.8159943	1.315000057	13.74481106	-0.1708919704	-0.6249130368	1.0
[Spine1]
24	0	100.8349991	-10.00800037	4.75344944	0.3629879355	-0.7241812348	1.0
25	0	100.8349991	-10.00800037	5.128644943	0.485411793	-0.494546175	1.0
26	0	100.8349991	-10.00800037	5.067219734	0.8369497061	-0.01327881869	1.0
[Spine2]
24	0	91	-13.73399925	4.689931393	0.3466099203	-0.837967515	1.0
25	0	91	-13.73399925	5.068059444	0.4755111933	-0.6263388395	1.0
26	0	91	-13.73399925	5.02142477	0.8328645825	-0.1474085897	1.0
[Neck]
24	0	166.7169952	-25.16200066	19.42750931	0.03601330891	-2.504979134	1.0
25	0	166.7169952	-25.16200066	19.55628204	-0.2073855698	-2.585326195	1.0
26	0	166.7169952	-25.16200066	19.35719872	-0.5721644759	-3.169428825	1.0
[Head]
24	0	96.17900085	16.84999847	-25.28213501	-4.456655502	12.85367966	1.0
25	0	96.17900085	16.84999847	-30.91432953	-4.113753319	12.11595535	1.0
26	0	96.17900085	16.84999847	-33.61822891	-5.388801098	11.83433056	1.0
[LeftEye]
24	30.6760006	64.09500122	92.83599854	0	0	0	1.0
25	30.6760006	64.09500122	92.83599854	0	0	0	1.0
26	30.6760006	64.09500122	92.83599854	0	0	0	1.0
[RightEye]
24	-30.6760006	64.09500122	92.83499908	0	0	0	1.0
25	-30.6760006	64.09500122	92.83499908	0	0	0	1.0
26	-30.6760006	64.09500122	92.83499908	0	0	0	1.0
[LeftShoulder]
24	45.70400238	109.4599991	-26.28000069	1.018478394	-11.16800976	21.50660133	1.0
25	45.70400238	109.4599991	-26.28000069	1.189376354	-7.07864809	24.05331802	1.0
26	45.70400238	109.4599991	-26.28000069	1.289740324	-6.103066444	24.14319038	1.0
[LeftArm]
24	105.923996	-5.24600029	-22.32099915	-20.91213989	-24.28933144	37.32505035	1.0
25	105.923996	-5.24600029	-22.32099915	-29.97859192	-21.34565735	35.72780228	1.0
26	105.923996	-5.24600029	-22.32099915	-30.28048515	-21.25857925	33.57861328	1.0
[LeftForeArm]
24	278.414978	-0.0009999999311	0	4.352143151e-06	-40.37437439	-0.000210182232	1.0
25	278.414978	-0.0009999999311	0	4.803759111e-06	-44.10094452	-0.0002045562433	1.0
26	278.414978	-0.0009999999311	0	-7.699546586e-06	-46.10394287	-0.0002157764829	1.0
[LeftHand]
24	283.2879944	0	0	-36.13631821	-6.296047688	-4.741034031	1.0
25	283.2879944	0	0	-35.30887604	-1.028684497	8.698908806	1.0
26	283.2879944	0	0	-36.65486526	2.024150848	20.90920448	1.0
[LeftHandThumb1]
24	24.6609993	-15.75	26.8239994	-2.172489643	-2.258298874	3.41091156	1.0
25	24.6609993	-15.75	26.8239994	-2.560037136	-3.325671434	3.099436283	1.0
26	24.6609993	-15.75	26.8239994	-2.700586796	-3.716505766	2.987641573	1.0
[LeftHandThumb2]
24	32.29800034	-18.64699936	18.64699936	-0.01902996004	4.248767376	9.126102448	1.0
25	32.29800034	-18.64699936	18.64699936	-0.2006594539	1.182243466	8.62267971	1.0
26	32.29800034	-18.64699936	18.64699936	-0.306447953	-0.009142533876	11.59717369	1.0
[LeftHandThumb3]
24	26.52600098	-15.31499958	15.31499958	-17.8874588	1.407560349	14.5361166	1.0
25	26.52600098	-15.31499958	15.31499958	-19.80331421	-2.771658659	14.72369576	1.0
26	26.52600098	-15.31499958	15.31499958	-20.89670753	-6.034042358	13.67829704	1.0
[LeftHandThumb4]
24	19.54599953	-11.28499985	11.28499985	0	0	0	1.0
25	19.54599953	-11.28499985	11.28499985	0	0	0	1.0
26	19.54599953	-11.28499985	11.28499985	0	0	0	1.0
[LeftHandIndex1]
24	91.09299469	-5.170999527	22.60099792	0.8223132491	-11.02886105	-4.44396162	1.0
25	91.09299469	-5.170999527	22.60099792	1.016113639	-13.51955509	-3.135596991	1.0
26	91.09299469	-5.170999527	22.60099792	0.6706290841	-15.68956661	-1.747852683	1.0
[LeftHandIndex2]
24	36.76399994	0	0	-0.2559452951	1.710437775	-17.01960564	1.0
25	36.76399994	0	0	-0.2539228797	1.703828692	-16.95197868	1.0
26	36.76399994	0	0	-0.2520653009	1.697707772	-16.88934135	1.0
[LeftHandIndex3]
24	28.83100128	0	0	-0.05245021358	0.781265378	-7.681327343	1.0
25	28.83100128	0	0	-0.05153181776	0.7744165063	-7.613567352	1.0
26	28.83100128	0	0	-0.05073429272	0.7684524059	-7.554517746	1.0
[LeftHandIndex4]
24	23.92700005	0	0	0	0	0	1.0
25	23.92700005	0	0	0	0	0	1.0
26	23.92700005	0	0	0	0	0	1.0
[LeftHandMiddle1]
24	95.33399963	0	0	-0.2324841321	0.2439667434	-6.459167957	1.0
25	95.33399963	0	0	-0.1849888116	0.1754644513	-5.540193558	1.0
26	95.33399963	0	0	-0.2140546739	0.6118094325	-6.08050251	1.0
[LeftHandMiddle2]
24	36.98199844	0	0	-0.2699456215	1.755508304	-17.48263168	1.0
25	36.98199844	0	0	-0.2701166272	1.756038666	-17.48810196	1.0
26	36.98199844	0	0	-0.2731018066	1.76551044	-17.58546638	1.0
[LeftHandMiddle3]
24	29.50900078	0	0	-0.3020939529	1.854423285	-18.50326538	1.0
25	29.50900078	0	0	-0.3022444546	1.854882121	-18.50786018	1.0
26	29.50900078	0	0	-0.3053230345	1.86403954	-18.60277367	1.0
[LeftHandMiddle4]
24	28.3390007	0	0	0	0	0	1.0
25	28.3390007	0	0	0	0	0	1.0
26	28.3390007	0	0	0	0	0	1.0
[LeftHandRing1]
24	91.04499817	-0.4390000105	-18.65100098	-0.5324313045	9.368296623	-12.05729389	1.0
25	91.04499817	-0.4390000105	-18.65100098	-0.4714328051	10.95260525	-11.36540318	1.0
26	91.04499817	-0.4390000105	-18.65100098	-0.521910429	11.55320358	-12.28660202	1.0
[LeftHandRing2]
24	31.54000092	0	0	-0.4164464772	2.16617012	-21.76216125	1.0
25	31.54000092	0	0	-0.4093396962	2.148307562	-21.57362175	1.0
26	31.54000092	0	0	-0.4015366733	2.128489256	-21.36449814	1.0
[LeftHandRing3]
24	29.37700081	0	0	-0.3091371655	1.8753438	-18.71985054	1.0
25	29.37700081	0	0	-0.3030826151	1.857373476	-18.53373528	1.0
26	29.37700081	0	0	-0.2963246703	1.83712101	-18.32436371	1.0
[LeftHandRing4]
24	26.47500038	0	0	0	0	0	1.0
25	26.47500038	0	0	0	0	0	1.0
26	26.47500038	0	0	0	0	0	1.0
[LeftHandPinky1]
24	80.77799988	-4.887000084	-38.06099701	-1.280517697	16.50216866	-17.4654541	1.0
25	80.77799988	-4.887000084	-38.06099701	-1.237588286	20.67780304	-18.45562172	1.0
26	80.77799988	-4.887000084	-38.06099701	-1.157640696	23.44687462	-20.11359024	1.0
[LeftHandPinky2]
24	36	0	0	-0.2926264107	1.825909376	-18.20853806	1.0
25	36	0	0	-0.287487179	1.810194969	-18.0461216	1.0
26	36	0	0	-0.2803824842	1.788297296	-17.82038116	1.0
[LeftHandPinky3]
24	21.14200211	0	0	-0.2639815509	1.736432791	-17.28665733	1.0
25	21.14200211	0	0	-0.259167999	1.720900178	-17.12702179	1.0
26	21.14200211	0	0	-0.252684325	1.699731946	-16.91006088	1.0
[LeftHandPinky4]
24	19.75699997	0	0	0	0	0	1.0
25	19.75699997	0	0	0	0	0	1.0
26	19.75699997	0	0	0	0	0	1.0
[RightShoulder]
24	-45.70000076	109.4620056	-26.28000069	-2.478873014	14.44468784	-33.09985733	1.0
25	-45.70000076	109.4620056	-26.28000069	-2.701466084	15.27162266	-32.56089401	1.0
26	-45.70000076	109.4620056	-26.28000069	-2.168172598	13.93537045	-31.52916527	1.0
[RightArm]
24	-105.9280014	-5.248000145	-22.32099915	-9.241983414	-21.96055412	22.11491776	1.0
25	-105.9280014	-5.248000145	-22.32099915	-12.31660652	-22.58037376	23.65965271	1.0
26	-105.9280014	-5.248000145	-22.32099915	-19.99744034	-18.44957352	23.6952095	1.0
[RightForeArm]
24	-278.414978	0	0	4.064104814e-06	43.44654846	-4.470852673e-06	1.0
25	-278.414978	0	0	-2.845021982e-06	38.0514183	6.572059647e-06	1.0
26	-278.414978	0	0	-2.585773373e-08	37.06158829	-4.832549507e-07	1.0
[RightHand]
24	-283.2879944	0	0.0009999999311	-14.51111126	4.817094326	-3.189282656	1.0
25	-283.2879944	0	0.0009999999311	-10.02278233	0.2077829987	-9.495024681	1.0
26	-283.2879944	0	0.0009999999311	-9.180088043	-2.582540751	-15.09407043	1.0
[RightHandPinky1]
24	-80.76699829	-4.885000229	-38.06000137	-0.7061147094	-20.51829147	17.84114456	1.0
25	-80.76699829	-4.885000229	-38.06000137	-0.8455127478	-21.90005112	20.21660423	1.0
26	-80.76699829	-4.885000229	-38.06000137	-0.8953242898	-22.06088257	21.08925438	1.0
[RightHandPinky2]
24	-36	0	0.0009999999311	-0.2863205671	-1.604541183	20.25325584	1.0
25	-36	0	0.0009999999311	-0.2771807611	-1.579565763	19.92479134	1.0
26	-36	0	0.0009999999311	-0.239615798	-1.471722603	18.5138588	1.0
[RightHandPinky3]
24	-21.14200211	0	0	-0.2637116313	-1.541844845	19.41032982	1.0
25	-21.14200211	0	0	-0.2542945147	-1.51488471	19.05743027	1.0
26	-21.14200211	0	0	-0.2184655368	-1.406921387	17.65205193	1.0
[RightHandPinky4]
24	-19.75699997	0	0	0	0	0	1.0
25	-19.75699997	0	0	0	0	0	1.0
26	-19.75699997	0	0	0	0	0	1.0
[RightHandRing1]
24	-91.03599548	-0.4390000105	-18.65100098	-0.8030034304	-8.410978317	16.89771461	1.0
25	-91.03599548	-0.4390000105	-18.65100098	-0.8175310493	-9.645706177	17.24964714	1.0
26	-91.03599548	-0.4390000105	-18.65100098	-0.7719295621	-10.072999	16.57221413	1.0
[RightHandRing2]
24	-31.54000092	0	0	-0.3702078462	-1.815930486	23.04422569	1.0
25	-31.54000092	0	0	-0.3569556773	-1.784447551	22.62213135	1.0
26	-31.54000092	0	0	-0.3224082887	-1.699223518	21.4858551	1.0
[RightHandRing3]
24	-29.37700081	0	0	-0.2795619369	-1.5860852	19.99082947	1.0
25	-29.37700081	0	0	-0.2680756748	-1.554167151	19.57176208	1.0
26	-29.37700081	0	0	-0.2381328642	-1.467264891	18.43605042	1.0
[RightHandRing4]
24	-26.47500038	0	0	0	0	0	1.0
25	-26.47500038	0	0	0	0	0	1.0
26	-26.47500038	0	0	0	0	0	1.0
[RightHandMiddle1]
24	-95.32500458	0	0	-0.65634197	-0.9712198377	14.28520584	1.0
25	-95.32500458	0	0	-0.6264706254	-1.312234402	13.76071262	1.0
26	-95.32500458	0	0	-0.5948120356	-1.291823506	13.2119379	1.0
[RightHandMiddle2]
24	-36.98199844	0	0	-0.2193316966	-1.409621358	17.68696022	1.0
25	-36.98199844	0	0	-0.1900627613	-1.31434679	16.45568085	1.0
26	-36.98199844	0	0	-0.1407302022	-1.134085894	14.14716434	1.0
[RightHandMiddle3]
24	-29.50900078	0	0	-0.24503313	-1.489822626	18.70392799	1.0
25	-29.50900078	0	0	-0.2139880508	-1.394810557	17.4688797	1.0
26	-29.50900078	0	0	-0.1615116894	-1.215549231	15.16150188	1.0
[RightHandMiddle4]
24	-28.3390007	0	0.0009999999311	0	0	0	1.0
25	-28.3390007	0	0.0009999999311	0	0	0	1.0
26	-28.3390007	0	0.0009999999311	0	0	0	1.0
[RightHandIndex1]
24	-91.08300018	-5.167999744	22.60099792	-0.3511151373	15.46681595	12.83321667	1.0
25	-91.08300018	-5.167999744	22.60099792	-0.1653595567	17.84736252	10.72824001	1.0
26	-91.08300018	-5.167999744	22.60099792	-0.04709786177	18.79179764	9.643279076	1.0
[RightHandIndex2]
24	-36.76399994	0	0	-0.2047243416	-1.363009095	17.08363724	1.0
25	-36.76399994	0	0	-0.1987692416	-1.34347713	16.83150291	1.0
26	-36.76399994	0	0	-0.1709188074	-1.247723818	15.59964275	1.0
[RightHandIndex3]
24	-28.83100128	0	0	-0.04287586734	-0.6293497682	7.794651508	1.0
25	-28.83100128	0	0	-0.0401249975	-0.6089698672	7.540556431	1.0
26	-28.83100128	0	0	-0.02811189741	-0.5099942684	6.309583187	1.0
[RightHandIndex4]
24	-23.92700005	0	0	0	0	0	1.0
25	-23.92700005	0	0	0	0	0	1.0
26	-23.92700005	0	0	0	0	0	1.0
[RightHandThumb1]
24	-24.64799881	-15.72700024	26.82600021	-4.275362492	7.204119205	-2.049315929	1.0
25	-24.64799881	-15.72700024	26.82600021	-4.762661457	8.570723534	-1.70744884	1.0
26	-24.64799881	-15.72700024	26.82600021	-4.987555981	9.19585228	-1.556639194	1.0
[RightHandThumb2]
24	-32.29800034	-18.64699936	18.64699936	15.68810654	0.6558690071	-23.37124252	1.0
25	-32.29800034	-18.64699936	18.64699936	15.36394119	1.622572184	-20.17997932	1.0
26	-32.29800034	-18.64699936	18.64699936	15.23166466	2.611952066	-19.80766106	1.0
[RightHandThumb3]
24	-26.52600098	-15.31399918	15.31399918	-14.76100349	-7.188652515	-16.86486816	1.0
25	-26.52600098	-15.31399918	15.31399918	-14.85531235	-6.79689312	-16.17935944	1.0
26	-26.52600098	-15.31399918	15.31399918	-14.98221493	-6.599020481	-16.72478867	1.0
[RightHandThumb4]
24	-19.54599953	-11.28499985	11.28499985	0	0	0	1.0
25	-19.54599953	-11.28499985	11.28499985	0	0	0	1.0
26	-19.54599953	-11.28499985	11.28499985	0	0	0	1.0
[LeftUpLeg]
24	82.07800293	-67.51699829	-15.99599934	-127.3583832	-4.13573885	-8.392178535	1.0
25	82.07800293	-67.51699829	-15.99599934	-125.3326263	0.3328038156	-11.88678265	1.0
26	82.07800293	-67.51699829	-15.99599934	-114.7653427	9.34536171	-11.25655651	1.0
[LeftLeg]
24	0	-443.7049866	2.845999956	137.9162445	-8.987039566	2.587680817	1.0
25	0	-443.7049866	2.845999956	134.9655151	-8.507537842	2.159839392	1.0
26	0	-443.7049866	2.845999956	125.0617447	-3.904597044	0.1724478006	1.0
[LeftFoot]
24	0	-444.2789917	-29.8219986	-15.54087162	3.780539274	7.599415302	1.0
25	0	-444.2789917	-29.8219986	-18.27792549	1.354549408	6.38715601	1.0
26	0	-444.2789917	-29.8219986	-15.02587128	0.8373883367	4.784294128	1.0
[LeftToeBase]
24	0	-87.28699493	107.1060028	-6.581537247	1.989037173e-06	2.495275567e-06	1.0
25	0	-87.28699493	107.1060028	-6.22601223	-2.706886789e-06	-1.138041171e-06	1.0
26	0	-87.28699493	107.1060028	-6.479003429	-6.421698799e-06	-9.804357433e-07	1.0
[RightUpLeg]
24	-82.07800293	-67.51699829	-15.99599934	-65.3028717	-14.92051888	-3.07025218	1.0
25	-82.07800293	-67.51699829	-15.99599934	-83.42552185	-14.03565693	-2.022240639	1.0
26	-82.07800293	-67.51699829	-15.99599934	-100.7064209	-13.61970901	-2.05421257	1.0
[RightLeg]
24	0	-443.7049866	2.861999989	73.5177002	-5.313386917	-0.2362716645	1.0
25	0	-443.7049866	2.861999989	91.01476288	-3.761841297	0.1277579665	1.0
26	0	-443.7049866	2.861999989	106.6364365	-2.599390984	-0.3138773143	1.0
[RightFoot]
24	0	-444.2770081	-29.83799934	8.526054382	-0.5303407311	12.28216743	1.0
25	0	-444.2770081	-29.83799934	1.39409411	-0.08202757686	14.07492828	1.0
26	0	-444.2770081	-29.83799934	-3.919360161	-0.007070497144	10.8666935	1.0
[RightToeBase]
24	0	-87.28699493	107.1060028	-4.655807018	5.243622127e-06	-7.548219969e-07	1.0
25	0	-87.28699493	107.1060028	-6.304574966	-5.317891919e-06	3.376361519e-07	1.0
26	0	-87.28699493	107.1060028	-7.281681061	-6.10724328e-06	8.429335594e-07	1.0
[EndOfFile]
